<?xml version="1.0" encoding="UTF-8"?>
<svg width="99px" height="52px" viewBox="0 0 99 52" version="1.1" xmlns="http://www.w3.org/2000/svg" xmlns:xlink="http://www.w3.org/1999/xlink">
    <!-- Generator: Sketch 50.2 (55047) - http://www.bohemiancoding.com/sketch -->
    <title>LOGO</title>
    <desc>Created with Sketch.</desc>
    <defs></defs>
    <g id="LoopTube" stroke="none" stroke-width="1" fill="none" fill-rule="evenodd">
        <g id="Connexion" transform="translate(-44.000000, -29.000000)">
            <g id="HEADER">
                <g id="LOGO" transform="translate(42.000000, 22.000000)">
                    <path d="M71.5830887,13.5767492 C66.3958456,7.79099823 57.8169858,6.59398373 51.2331884,10.6506173 C49.836634,11.5151767 48.5065951,12.7121899 47.3095792,14.1752571 L45.0484681,16.9684198 L39.2627171,24.2171815 L35.7380773,28.5398678 C35.2060822,29.204886 34.6075204,29.736935 34.075528,30.0694454 C31.2159076,31.7985101 27.5582421,31.2664611 25.2971296,28.8058628 C22.9695595,26.2122977 22.9695595,22.2221218 25.2971296,19.6284977 C26.6271698,18.165433 28.489259,17.3673865 30.4178611,17.3673865 C31.6814437,17.3673865 32.9449711,17.7664097 34.075528,18.3649716 C34.6740333,18.6974255 35.2060823,19.229477 35.7380773,19.8944952 L36.6848121,21.0556069 L42.5316162,13.8849374 C41.4007306,12.5579878 40.1633988,11.4552277 38.8636938,10.6506173 C32.2799502,6.59398366 23.7010918,7.79099816 18.5139026,13.5767492 C13.1271742,19.6284977 13.1271742,29.0054039 18.5139026,34.9906395 C21.6395192,38.5152768 26.0286619,40.3108005 30.417861,40.3108005 C33.3439942,40.3108005 36.2035568,39.5128105 38.8636938,37.8502047 C40.2602456,36.9856967 41.5903411,35.788686 42.7873569,34.3255623 L45.048468,31.5324561 L50.9006779,24.2836944 L54.4253717,19.9610081 C54.9573641,19.2959898 55.5558721,18.7639409 56.0879235,18.4314305 C58.94754,16.7023658 62.6051517,17.2344147 64.8662654,19.6950131 C67.193892,22.2885782 67.193892,26.2787541 64.8662654,28.8723782 C62.6052082,31.332974 58.9475401,31.8649665 56.0879235,30.1359043 C55.4894157,29.8033939 54.9573641,29.2713989 54.4253717,28.6063807 L53.443064,27.4016453 L47.5347112,34.6477055 C48.6736502,35.990649 49.9219554,37.1049937 51.2331884,37.9167177 C57.8169859,41.9734065 66.3958457,40.7763341 71.5830887,34.9906397 C76.9697626,28.9388911 76.9697626,19.5619848 71.5830887,13.5767492 Z" id="Shape" fill="#FF0000" fill-rule="nonzero"></path>
                    <path d="M25.0588037,41.5005744 L25.0588037,44.7357601 L27.3088388,44.7357601 L27.3088388,47.3141787 L25.0588037,47.3141787 L25.0588037,53.8818487 C25.0588037,54.3683452 25.1520475,54.7169958 25.3385378,54.927811 C25.5250281,55.1386261 25.8817869,55.2440321 26.4088248,55.2440321 C26.798022,55.2440321 27.1426185,55.2156536 27.4426247,55.1588957 L27.4426247,57.8224507 C26.7534213,58.0332659 26.0439579,58.1386719 25.3142131,58.1386719 C22.8492975,58.1386719 21.5925337,56.8940703 21.543884,54.4048298 L21.543884,47.3141787 L19.6222324,47.3141787 L19.6222324,44.7357601 L21.543884,44.7357601 L21.543884,41.5005744 L25.0588037,41.5005744 Z M37.3215345,56.5575661 C36.453949,57.6116419 35.2539423,58.1386719 33.7214783,58.1386719 C32.3106384,58.1386719 31.234281,57.7332642 30.4923739,56.9224367 C29.7504667,56.1116092 29.3714105,54.9237647 29.355194,53.3588676 L29.355194,44.7357601 L32.8701137,44.7357601 L32.8701137,53.2372441 C32.8701137,54.6075426 33.4944415,55.2926815 34.7431159,55.2926815 C35.9350323,55.2926815 36.7539558,54.8791657 37.199911,54.0521216 L37.199911,44.7357601 L40.726993,44.7357601 L40.726993,57.8954248 L37.4188333,57.8954248 L37.3215345,56.5575661 Z M55.4100318,51.437216 C55.4100318,53.5453675 54.9600293,55.1892956 54.0600107,56.3690497 C53.1599922,57.5488037 51.9032284,58.1386719 50.2896816,58.1386719 C48.8626252,58.1386719 47.7234296,57.5913715 46.8720607,56.4967544 L46.7139502,57.8954248 L43.5517387,57.8954248 L43.5517387,39.2140523 L47.0666584,39.2140523 L47.0666584,45.9155082 C47.8774859,44.96684 48.9437081,44.492513 50.2653569,44.492513 C51.8707954,44.492513 53.1295862,45.0823812 54.0417672,46.2621352 C54.9539482,47.4418893 55.4100318,49.1020337 55.4100318,51.2426183 L55.4100318,51.437216 Z M51.8951121,51.1818066 C51.8951121,49.8520495 51.6843001,48.8810981 51.2626698,48.2689233 C50.8410395,47.6567485 50.2126576,47.3506657 49.3775052,47.3506657 C48.2585633,47.3506657 47.4882887,47.8087764 47.0666584,48.7250115 L47.0666584,53.9183358 C47.496397,54.8426791 48.2747797,55.3048439 49.4018299,55.3048439 C50.5369885,55.3048439 51.2829386,54.7453813 51.6397027,53.6264393 C51.8099765,53.0912932 51.8951121,52.2764237 51.8951121,51.1818066 Z M63.8051346,58.1386719 C61.8753651,58.1386719 60.3044104,57.5467767 59.0922233,56.3629685 C57.8800361,55.1791603 57.2739516,53.6021245 57.2739516,51.6318136 L57.2739516,51.2912677 C57.2739516,49.9696189 57.5293585,48.7878555 58.0401798,47.7459422 C58.5510011,46.7040288 59.2746539,45.9013216 60.2111596,45.3377965 C61.1476654,44.7742714 62.2159146,44.492513 63.4159394,44.492513 C65.2159764,44.492513 66.6328763,45.0600838 67.6666814,46.1952423 C68.7004864,47.3304008 69.2173812,48.9398693 69.2173812,51.023696 L69.2173812,52.4588535 L60.8375208,52.4588535 C60.9510366,53.3183307 61.2936061,54.0075237 61.8652395,54.5264534 C62.4368729,55.045383 63.1605256,55.3048439 64.0362193,55.3048439 C65.3903013,55.3048439 66.4484153,54.8143006 67.2105932,53.8331993 L68.9376471,55.7670133 C68.4106092,56.5129746 67.6970917,57.0947346 66.7970732,57.5123108 C65.8970547,57.9298869 64.8997518,58.1386719 63.8051346,58.1386719 Z M63.403777,47.3385034 C62.7064653,47.3385034 62.1409216,47.5736398 61.7071289,48.0439198 C61.2733362,48.5141997 60.9956319,49.1871765 60.8740078,50.0628702 L65.7632733,50.0628702 L65.7632733,49.7831361 C65.7470567,49.0047417 65.5362447,48.4027113 65.130831,47.9770268 C64.7254172,47.5513424 64.1497383,47.3385034 63.403777,47.3385034 Z" id="tube" fill="#FFFFFF"></path>
                    <path d="M9.02485009,39.7189542 L2.9239514,39.7189542 L2.9239514,7.40522876 L9.02485009,7.40522876 L9.02485009,39.7189542 Z M100.996375,28.5479984 C100.996375,32.0542795 100.200461,34.8627686 98.6086092,36.9735498 C97.0167575,39.0843311 94.8674394,40.1397059 92.1605904,40.1397059 C89.8604699,40.1397059 88.0021688,39.3402858 86.5856312,37.7414216 L86.5856312,48.4705882 L80.5057701,48.4705882 L80.5057701,16.9562908 L86.143842,16.9562908 L86.3542178,19.1862745 C87.8268559,17.4191088 89.7482692,16.5355392 92.1185152,16.5355392 C94.9235401,16.5355392 97.1044143,17.5733829 98.6612031,19.6491013 C100.217992,21.7248197 100.996375,24.5859022 100.996375,28.2324346 L100.996375,28.5479984 Z M94.9165136,28.1062092 C94.9165136,25.9884153 94.5413471,24.3545128 93.791003,23.2044526 C93.0406588,22.0543924 91.9502217,21.4793709 90.519659,21.4793709 C88.6122421,21.4793709 87.3009126,22.2086665 86.5856312,23.6672794 L86.5856312,32.9869281 C87.3289628,34.4876164 88.6543172,35.2379493 90.5617342,35.2379493 C93.464935,35.2379493 94.9165136,32.8607264 94.9165136,28.1062092 Z" id="l-p" fill="#FFFFFF"></path>
                </g>
            </g>
        </g>
    </g>
</svg>