<?xml version="1.0" encoding="UTF-8"?>
<svg width="594px" height="280px" viewBox="0 0 594 280" version="1.1" xmlns="http://www.w3.org/2000/svg" xmlns:xlink="http://www.w3.org/1999/xlink">
    <!-- Generator: Sketch 50.2 (55047) - http://www.bohemiancoding.com/sketch -->
    <title>Shape Copy</title>
    <desc>Created with Sketch.</desc>
    <defs></defs>
    <g id="LoopTube" stroke="none" stroke-width="1" fill="none" fill-rule="evenodd" opacity="0.126618304">
        <g id="Inscription" transform="translate(-846.000000, -601.000000)" fill="#FF0000" fill-rule="nonzero">
            <path d="M1457.11276,657.876036 C1401.60526,595.964045 1309.80486,583.155068 1239.35316,626.564171 C1224.40895,635.815622 1210.17651,648.624585 1197.36752,664.280531 L1173.17189,694.169522 L1111.2599,771.736854 L1073.54354,817.992926 C1067.85078,825.109133 1061.44571,830.802466 1055.75298,834.360583 C1025.15284,852.862907 986.013002,847.169573 961.817357,820.839276 C936.910565,793.086133 936.910565,750.388178 961.817357,722.634404 C976.049812,706.978485 995.9756,698.438773 1016.61313,698.438773 C1030.13443,698.438773 1043.65515,702.708629 1055.75298,709.113702 C1062.15745,712.671215 1067.85078,718.364575 1073.54354,725.480782 L1083.67433,737.905571 L1146.23963,661.173887 C1134.13829,646.974504 1120.89788,635.174121 1106.99004,626.56417 C1036.53891,583.155068 944.738524,595.964044 889.231606,657.876035 C831.589465,722.634404 831.589465,822.97452 889.231606,887.02115 C922.67811,924.737482 969.645317,943.950968 1016.61313,943.950968 C1047.925,943.950968 1078.52453,935.411861 1106.99004,917.620699 C1121.93422,908.369797 1136.16727,895.560862 1148.97626,879.904311 L1173.17189,850.015924 L1235.79504,772.448592 L1273.51197,726.192521 C1279.2047,719.076314 1285.6092,713.382981 1291.30256,709.824863 C1321.90266,691.322539 1361.04192,697.015873 1385.23758,723.34617 C1410.14497,751.099313 1410.14497,793.797268 1385.23758,821.551043 C1361.04252,847.881312 1321.90266,853.574042 1291.30256,835.071745 C1284.89806,831.513628 1279.2047,825.820872 1273.51197,818.704665 L1263.00053,805.813068 L1199.7766,883.351491 C1211.96413,897.722021 1225.32195,909.646367 1239.35316,918.332439 C1309.80486,961.742132 1401.60526,948.932537 1457.11276,887.021151 C1514.75432,822.262782 1514.75432,721.922665 1457.11276,657.876036 Z" id="Shape-Copy"></path>
        </g>
    </g>
</svg>